<svg version="1" xmlns="http://www.w3.org/2000/svg" width="933.333" height="933.333" viewBox="0 0 700.000000 700.000000"><path d="M389.7 3.6c-.1.1-3.2.5-6.9.8-6.9.7-7.6.8-16.8 2.7-15.3 3.1-29.7 8.1-44.1 15.4-7.6 3.8-20.7 11.7-24.3 14.5-.6.5-4 3.3-7.6 6.1-19.8 15.8-38.7 39.2-50.4 62.6-5 10-4.3 9.6-12.5 7.7-2.9-.6-22.7-.6-26.3.1-1.6.3-4 .7-5.5.9-9.2 1.2-17.2 4-29.8 10.2-26.2 12.9-47.6 38.7-56.3 67.9l-2.1 7.1-7.3 2.3c-35.1 11.1-65.5 37.2-83 71.3-2.4 4.5-4.9 9.9-5.7 11.8-3.8 10.1-7.2 22.1-8.7 30.3-2.2 12-2.6 35.4-.8 48.2C9.3 419 47 465.3 98.4 482.6c22.6 7.5 1.4 6.9 249.1 6.9 122.1 0 224.5-.3 227.5-.7 19.8-2.6 40.9-10.2 57-20.6 36-23.3 59.8-60.7 66.4-104.2 1.6-10.8 1.4-37.2-.3-46-.6-3-1.2-6.4-1.4-7.5-1.8-9.8-7.6-26.1-13.6-38-18.3-35.9-50.9-62.8-88.7-73-5.4-1.5-10-2.9-10.2-3-.2-.2-.5-4.9-.7-10.6-.4-11.2-2.1-26.7-3.5-31.4-.5-1.7-1.1-4.6-1.4-6.7-2-13.5-15.4-44.8-26.3-61.3-30.3-46-79.4-76.6-131.8-82.1-6.4-.6-30.3-1.3-30.8-.8zM1 515.8c-1.8.6-1.1 16.2 1.1 25.2 1.1 4.7 2.3 9.5 2.5 10.8.2 1.2 3 12.7 6 25.5 3.1 12.7 5.8 23.9 5.9 24.7.2.8 1.7 7.2 3.4 14.2 1.7 7.1 4.5 18.5 6.1 25.5 1.7 7.1 3.3 13.9 3.7 15.3.3 1.4.7 3.1.9 3.9.9 4.5 1.7 6.7 2.7 7.3 1.5 1 32.8 1 34.3 0 .7-.4 7.3-23.9 14.9-52.2 7.5-28.3 13.7-51.6 13.9-51.7.1-.1 5.9 21.5 13 48 7 26.5 13.3 50 14 52.2l1.3 4 16.8.3c9.3.1 17.2-.1 17.7-.6.7-.7 7.7-27.6 9.4-36.1.3-1.3 4.1-16.9 8.4-34.8 4.4-17.9 8.2-33.5 8.4-34.7.3-1.1 2.6-10.7 5.1-21.1 5.8-23.3 5.9-24.1 4.3-25.1-1.8-1.2-29.9-1.1-31.5.1-1.1.8-4.4 13-6.7 25-.3 1.1-2.2 10.1-4.5 20-2.2 9.9-4.2 19.1-4.5 20.5-1.3 6.5-3.6 16.9-4 18.1-.3.8-.8 3.2-1.1 5.3-.6 4-1.1 5.3-2 4.5-.2-.3-5.6-21.1-12-46.4-6.3-25.2-12-46.4-12.5-46.9-1.3-1.3-36.7-1.3-38 0-.6.6-1.7 3.6-2.5 6.7s-2.1 8.1-2.9 10.9c-.8 2.9-4 15-7.1 26.8-3.1 11.8-6.5 24.4-7.5 28-1.1 3.6-2.1 7.6-2.4 9-1.4 6.7-3.4 12.4-3.9 11-.3-.8-2.4-10.1-4.7-20.5-2.2-10.5-4.9-22.9-6.1-27.6-1.1-4.8-2.2-9.7-2.4-11-2.5-13.6-7-31.7-8.1-32.9-1.1-1.1-4.3-1.5-14.9-1.5-7.4 0-13.9.1-14.5.3zM320.2 516.6c-1.4 1-1.6 9.6-1.7 75 0 40.7.3 74.7.7 75.6.8 1.6 2.5 1.8 14.7 1.8 9.9 0 14.1-.4 14.8-1.2.5-.7.8-3.4.7-6l-.1-4.8 4 3.6c5.1 4.6 14.7 9.1 21.7 10.1 22.9 3.4 44.8-12.7 50.6-37.3 4.3-18.5 3.1-38.2-3.2-52-5.3-11.7-16.5-21.6-28.4-25.1-7.2-2.1-19.9-2-26.5.2-2.7.9-7.5 3.4-10.6 5.5l-5.5 3.7v-23.5c.1-16-.3-24-1-25.1-1-1.2-3.7-1.5-14.9-1.6-8.8 0-14.4.4-15.3 1.1zm61.6 65.8c5.9 3.1 10.7 10.4 11.9 17.9 1.4 8.2.8 22.9-1.1 28.9-6.7 20.8-32.5 20.1-39.2-1.1-2.3-7.4-2.7-22.8-.8-30.1 3.2-11.9 11.3-18.2 22.2-17.3 2.4.2 5.6 1 7 1.7zM448.6 517c-1 1.2-1.2 17.9-1.1 75.5 0 40.7.4 74.6.8 75.2 1.2 1.8 31 1.8 32.5.1.6-.8 1-11.2 1-27.8 0-14.6.1-28.3.1-30.5l.1-4 29.8.1c16.9 0 30.2-.4 31-.9.8-.7 1.2-4.7 1.2-13.8 0-11.2-.2-12.9-1.7-13.8-1-.5-14.8-.9-30.6-.9-15.8.1-29-.2-29.3-.5-.5-.4-.8-21.9-.5-29 .1-1.6 2.5-1.7 34.9-1.7 25.7 0 35.1-.3 36-1.2 1.4-1.4 1.7-24.5.3-26.7-1.4-2.3-102.7-2.3-104.5-.1zM566.1 516.7c-1.4 1-1.4 1.4.2 4.5.9 1.8 5.3 8.7 9.7 15.3 4.4 6.6 8.3 12.7 8.8 13.5.4.8 2.8 4.6 5.3 8.5 2.5 3.8 8 12.3 12.3 18.8L610 589l-7.7 11.8c-4.2 6.4-11.5 17.5-16.1 24.7-4.7 7.1-12.2 18.6-16.7 25.5-10.2 15.5-9.6 14.5-8.9 16.4.5 1.4 3.1 1.6 18.8 1.6 9.9 0 18.6-.4 19.2-.8.6-.4 7.5-10.6 15.2-22.7 16.9-26.3 17-26.5 18.2-24.5.4.8 7.5 11.8 15.7 24.5l14.8 23 18.8.3 18.7.2v-3c0-2.3-5.8-11.8-23.3-38.3-12.8-19.3-23.7-35.8-24.1-36.5-.7-1.1 7.9-15.3 24.9-41.4 4.5-6.8 7.3-11.4 15.2-23.8 6.8-10.6 6.9-10.5-15.3-10.4l-17.9.1-2.5 4.1c-15.7 26-25.3 41.2-26 41.2-.4 0-1-.6-1.3-1.4-.3-.8-5.7-9.6-11.9-19.5-6.2-10-11.8-19.1-12.4-20.2-.7-1.1-1.7-2.6-2.3-3.2-1.5-1.5-34.9-1.6-37 0zM236.9 555.4c-24.1 4.1-40.5 26.2-41.3 55.5-.7 23.2 7.6 42.6 22.3 52 15.8 10.2 41.1 11.2 58.5 2.4 6.9-3.5 15.4-12.5 19.2-20.3 4.1-8.4 3.6-9.5-5.8-11-4-.6-10.1-1.7-13.4-2.4-7.5-1.5-9.8-.8-11.3 3.5-5 14.4-26 14-33.1-.6-1.2-2.5-2.4-6.2-2.7-8.1l-.5-3.4h35.1c39.5 0 36.4.7 36.4-7.9 0-10.5-1.9-20.7-5.5-30.1-8.6-22.1-31.8-34-57.9-29.6zm20.1 27.1c4 2.1 8.9 8.3 9.7 12.5 1.4 7 2.6 6.5-17.2 6.6-9.9 0-18.5-.2-19.2-.4-1.4-.4-.8-4.2 1.8-10.1 3.9-9.2 15.8-13.3 24.9-8.6z"/></svg>